<?xml version="1.0" standalone="no"?>
<!DOCTYPE svg PUBLIC "-//W3C//DTD SVG 20010904//EN"
 "http://www.w3.org/TR/2001/REC-SVG-20010904/DTD/svg10.dtd">
<svg version="1.0" xmlns="http://www.w3.org/2000/svg"
 width="16.000000pt" height="16.000000pt" viewBox="0 0 16.000000 16.000000"
 preserveAspectRatio="xMidYMid meet">
<metadata>
Created by potrace 1.11, written by Peter Selinger 2001-2013
</metadata>
<g transform="translate(0.000000,16.000000) scale(0.006400,-0.006400)"
fill="#000000" stroke="none">
<path d="M1040 2473 c-176 -31 -350 -105 -350 -149 0 -7 -22 -36 -49 -64 -54
-56 -64 -80 -67 -155 -1 -27 -8 -78 -15 -113 -10 -51 -10 -68 0 -83 6 -11 10
-28 7 -37 -6 -17 4 -84 22 -154 7 -25 6 -38 -1 -41 -6 -2 -5 -16 3 -42 9 -26
9 -40 3 -42 -6 -2 -9 -13 -6 -24 4 -15 8 -17 19 -8 23 19 28 4 29 -84 1 -45 7
-94 13 -108 6 -15 7 -31 2 -40 -5 -7 -14 -44 -20 -81 -15 -87 3 -183 55 -301
55 -124 56 -118 -14 -145 -36 -14 -62 -31 -66 -42 -12 -37 -30 -42 -61 -15
-16 14 -32 25 -36 25 -5 0 -8 7 -8 15 0 11 -12 15 -44 15 -25 0 -48 5 -51 10
-3 6 -19 10 -34 10 -22 0 -29 -7 -40 -35 -10 -30 -16 -35 -34 -30 -15 4 -18 3
-9 -3 10 -7 6 -22 -15 -70 -16 -34 -34 -61 -41 -62 -8 0 -10 -8 -6 -26 5 -19
3 -25 -4 -20 -22 13 1 -28 55 -100 105 -142 255 -261 438 -350 454 -219 993
-142 1372 197 87 78 177 187 192 232 13 39 32 233 25 252 -3 7 -1 16 5 20 20
12 -44 55 -83 55 -40 0 -43 -7 -22 -49 12 -22 13 -36 4 -70 -13 -50 -21 -45
-63 37 -18 35 -32 51 -41 48 -8 -3 -14 -1 -14 3 0 11 -55 31 -87 31 -21 0 -23
-4 -19 -35 3 -27 1 -35 -11 -35 -11 0 -14 -6 -10 -20 4 -16 2 -20 -12 -15 -10
3 -25 -3 -35 -14 -19 -20 -17 -47 9 -146 7 -27 16 -68 20 -90 l7 -40 -20 25
c-10 14 -23 39 -27 55 -5 17 -9 32 -10 35 -4 16 -19 98 -20 115 -4 48 -18 95
-36 114 -10 11 -19 24 -19 29 0 6 -11 17 -24 25 -23 16 -24 15 -36 -13 -10
-24 -9 -33 4 -52 9 -12 16 -33 16 -45 0 -13 5 -33 12 -46 35 -68 36 -77 7 -51
l-22 19 7 -30 c10 -39 8 -158 -3 -265 -5 -51 -5 -89 0 -96 5 -6 6 -25 3 -42
l-6 -31 -44 22 c-34 16 -44 27 -44 45 0 17 4 23 15 18 10 -4 15 1 15 14 0 11
-4 20 -9 20 -5 0 -9 27 -8 60 0 56 8 73 22 50 8 -14 25 -3 25 16 0 8 -12 20
-27 26 -27 11 -27 12 -5 15 27 5 27 12 5 51 -17 29 -17 32 5 75 12 24 22 53
22 64 0 27 -23 73 -36 73 -22 0 -31 -25 -44 -109 -15 -109 -41 -176 -94 -249
-57 -76 -67 -96 -63 -124 2 -18 -7 -28 -44 -46 -36 -18 -70 -24 -156 -28 -108
-6 -110 -6 -171 25 -67 34 -85 56 -140 171 -43 91 -95 256 -89 281 3 12 2 26
-3 33 -5 6 -29 34 -52 61 -24 28 -51 62 -60 75 l-18 25 -16 -22 c-16 -22 -17
-22 -50 48 -57 118 -77 200 -72 285 3 41 10 80 17 87 7 7 11 61 11 158 0 85 6
177 14 216 7 37 12 86 11 108 -3 47 20 139 41 159 8 8 14 18 14 23 1 21 107
52 178 52 41 0 80 5 88 12 11 9 22 7 53 -9 27 -15 53 -20 88 -17 26 1 70 -1
97 -6 39 -7 54 -6 73 6 12 9 22 20 20 27 -4 20 56 29 220 31 90 1 163 4 163 6
0 2 -6 9 -13 15 -7 6 -11 10 -8 9 9 -5 28 24 28 42 0 21 -11 35 -42 53 -11 6
-15 12 -10 12 20 0 16 56 -5 80 l-20 23 4 -36 c4 -32 2 -37 -14 -37 -11 0 -20
5 -20 10 0 6 -6 10 -12 10 -7 0 2 -14 20 -31 17 -16 32 -32 32 -35 0 -12 -22
-1 -47 24 -15 15 -31 26 -36 24 -4 -1 -7 5 -5 15 5 31 -29 27 -37 -4 -4 -15
-10 -22 -12 -15 -3 6 -9 10 -14 6 -5 -3 -14 7 -20 23 -13 34 -48 73 -66 73 -8
0 -16 7 -19 15 -4 9 -16 13 -35 11 -21 -2 -30 2 -35 16 -3 10 -17 23 -30 28
-14 6 -24 18 -24 29 0 10 -7 21 -15 25 -8 3 -15 12 -15 21 0 12 -16 15 -97 14
-54 -1 -109 -4 -123 -6z m390 -397 c0 -2 -7 -7 -16 -10 -8 -3 -12 -2 -9 4 6
10 25 14 25 6z m650 -1280 c0 -2 -3 -11 -6 -20 -9 -23 -24 -20 -24 4 0 11 7
20 15 20 8 0 15 -2 15 -4z m-250 -166 c0 -5 -2 -10 -4 -10 -3 0 -8 5 -11 10
-3 6 -1 10 4 10 6 0 11 -4 11 -10z m14 -52 c20 -28 21 -44 1 -28 -8 7 -15 19
-15 27 0 8 -4 11 -10 8 -5 -3 -10 -1 -10 4 0 18 18 12 34 -11z m26 -69 c0 -6
-4 -7 -10 -4 -5 3 -10 11 -10 16 0 6 5 7 10 4 6 -3 10 -11 10 -16z m48 -194
c-3 -3 -9 2 -12 12 -6 14 -5 15 5 6 7 -7 10 -15 7 -18z m12 -50 c0 -8 -2 -15
-4 -15 -2 0 -6 7 -10 15 -3 8 -1 15 4 15 6 0 10 -7 10 -15z m-120 -23 c0 -15
-2 -15 -10 -2 -13 20 -13 33 0 25 6 -3 10 -14 10 -23z m40 7 c0 -6 -4 -7 -10
-4 -5 3 -10 11 -10 16 0 6 5 7 10 4 6 -3 10 -11 10 -16z m41 4 c13 -16 12 -17
-3 -4 -17 13 -22 21 -14 21 2 0 10 -8 17 -17z"/>
<path d="M1527 2439 c7 -7 15 -10 18 -7 3 3 -2 9 -12 12 -14 6 -15 5 -6 -5z"/>
<path d="M1553 2431 c-10 -16 -9 -20 3 -25 21 -8 26 -7 44 4 13 8 12 11 -5 24
-26 20 -28 20 -42 -3z"/>
<path d="M1576 2379 c-16 -23 -16 -23 -30 -4 -15 20 -15 20 -12 0 2 -11 11
-22 22 -24 10 -2 25 -8 32 -13 8 -7 12 -7 12 1 0 6 7 11 15 11 20 0 19 13 -4
34 -18 16 -20 16 -35 -5z"/>
<path d="M1780 2365 c0 -3 21 -25 46 -49 25 -25 43 -49 40 -55 -3 -5 6 -19 21
-31 16 -12 22 -19 16 -15 -19 9 -16 -12 2 -23 9 -4 17 -19 19 -33 2 -13 8 -35
14 -49 5 -14 8 -28 5 -32 -2 -5 1 -8 7 -8 7 0 10 -6 7 -13 -3 -7 -1 -33 4 -58
12 -55 14 -131 5 -193 -5 -31 -3 -52 4 -61 15 -18 15 -82 0 -120 -7 -16 -13
-64 -15 -105 -3 -89 -37 -221 -70 -270 -13 -19 -26 -55 -30 -80 -11 -71 -45
-201 -61 -232 -13 -25 -13 -29 0 -34 8 -3 30 -1 50 4 26 8 48 6 83 -4 49 -15
246 -24 258 -13 3 4 1 112 -4 240 -6 129 -18 405 -27 614 l-15 380 -37 33
c-75 66 -149 120 -227 165 -76 45 -95 53 -95 42z"/>
<path d="M1630 2314 c0 -8 5 -12 10 -9 6 3 10 10 10 16 0 5 -4 9 -10 9 -5 0
-10 -7 -10 -16z"/>
<path d="M1100 1699 c0 -5 5 -7 10 -4 6 3 10 8 10 11 0 2 -4 4 -10 4 -5 0 -10
-5 -10 -11z"/>
<path d="M793 1567 c-26 -18 -53 -55 -53 -72 0 -6 111 3 117 9 2 2 43 -5 91
-15 102 -23 142 -24 142 -6 0 17 -42 57 -59 57 -16 0 -111 29 -133 41 -28 15
-70 9 -105 -14z"/>
<path d="M1530 1548 c-79 -30 -95 -58 -33 -58 41 0 103 19 103 32 0 5 12 13
26 19 31 11 30 14 -11 22 -18 3 -52 -3 -85 -15z"/>
<path d="M2383 1475 c0 -27 2 -38 4 -22 2 15 2 37 0 50 -2 12 -4 0 -4 -28z"/>
<path d="M1465 1461 c-68 -30 -89 -79 -53 -118 22 -24 48 -31 48 -13 0 6 7 10
16 10 9 0 22 7 28 16 7 8 32 18 56 21 25 4 51 12 58 20 7 7 25 16 40 19 56 12
57 15 13 39 -53 31 -145 33 -206 6z m169 -17 c23 -9 20 -24 -4 -24 -11 0 -20
7 -20 15 0 17 2 18 24 9z m-126 -23 c3 -8 -1 -12 -9 -9 -7 2 -15 10 -17 17 -3
8 1 12 9 9 7 -2 15 -10 17 -17z"/>
<path d="M1687 1459 c7 -7 15 -10 18 -7 3 3 -2 9 -12 12 -14 6 -15 5 -6 -5z"/>
<path d="M1000 1452 c-78 -6 -136 -24 -162 -49 -34 -32 -35 -43 -5 -42 12 1
45 -2 72 -6 28 -3 64 -6 82 -5 17 0 34 -4 38 -10 3 -5 19 -10 35 -10 37 0 49
-29 20 -52 -28 -23 -17 -44 13 -23 30 21 52 19 65 -7 8 -18 11 -19 11 -5 1 9
5 17 10 17 5 0 16 14 25 31 13 27 13 31 0 36 -8 3 -13 12 -10 19 9 24 -13 64
-41 75 -52 21 -118 34 -153 31z m-46 -71 c-9 -10 -26 18 -18 30 5 9 9 8 14 -7
4 -10 6 -21 4 -23z m136 18 c0 -5 -7 -9 -15 -9 -9 0 -12 6 -9 15 6 15 24 11
24 -6z"/>
<path d="M2470 1420 c-9 -6 -10 -10 -3 -10 6 0 15 5 18 10 8 12 4 12 -15 0z"/>
<path d="M2393 1325 c0 -27 2 -38 4 -22 2 15 2 37 0 50 -2 12 -4 0 -4 -28z"/>
<path d="M868 1253 c7 -3 16 -2 19 1 4 3 -2 6 -13 5 -11 0 -14 -3 -6 -6z"/>
<path d="M920 1250 c0 -5 7 -10 16 -10 8 0 12 5 9 10 -3 6 -10 10 -16 10 -5 0
-9 -4 -9 -10z"/>
<path d="M966 1243 c-11 -11 -6 -23 8 -23 8 0 17 4 20 9 7 10 -19 23 -28 14z"/>
<path d="M2403 1130 c0 -36 2 -50 4 -32 2 17 2 47 0 65 -2 17 -4 3 -4 -33z"/>
<path d="M1130 1105 c-9 -10 -10 -19 -4 -25 13 -13 49 13 40 28 -10 16 -21 15
-36 -3z"/>
<path d="M2413 960 c0 -30 2 -43 4 -27 2 15 2 39 0 55 -2 15 -4 2 -4 -28z"/>
<path d="M1085 868 c58 -52 91 -76 81 -60 -8 14 6 16 20 3 9 -9 140 2 151 13
4 3 -14 6 -38 6 -58 0 -174 32 -210 59 -50 37 -53 22 -4 -21z"/>
<path d="M2385 810 c6 -10 4 -12 -7 -7 -25 9 -30 -4 -11 -26 17 -19 17 -19 -6
-12 -17 5 -21 4 -16 -4 4 -7 2 -18 -4 -25 -12 -15 -44 -146 -37 -153 2 -3 18
19 35 49 24 41 29 60 25 86 -5 28 -3 32 15 32 11 0 22 5 22 10 4 39 2 54 -10
58 -9 3 -11 0 -6 -8z"/>
<path d="M191 769 c-18 -6 -31 -13 -28 -16 8 -7 66 7 72 18 7 11 1 10 -44 -2z"/>
<path d="M125 740 c-7 -11 23 -80 35 -80 13 0 2 54 -14 66 -9 6 -13 14 -9 17
3 4 4 7 0 7 -3 0 -9 -4 -12 -10z"/>
<path d="M1189 738 c-1 -4 -8 -45 -10 -55 -4 -22 2 -43 11 -43 6 0 20 -9 32
-19 17 -16 24 -18 39 -8 11 7 19 15 19 19 0 5 5 8 11 8 6 0 9 -7 5 -15 -7 -20
8 -19 25 2 10 11 10 14 2 9 -8 -4 -13 -2 -13 4 0 15 26 41 34 33 3 -4 6 6 6
20 0 15 -3 26 -7 25 -10 -2 -111 12 -135 18 -10 3 -18 4 -19 2z"/>
<path d="M1031 678 c-1 -10 -7 -18 -15 -18 -23 0 -28 -17 -10 -34 8 -9 13 -20
9 -26 -7 -12 12 -50 26 -50 5 0 24 -15 42 -32 39 -39 75 -64 88 -61 5 2 9 -2
9 -7 0 -10 30 -8 61 5 10 3 20 1 24 -5 5 -8 13 -6 28 7 11 10 17 12 13 6 -4
-7 -2 -13 3 -13 6 0 11 8 11 18 1 13 4 11 15 -8 11 -19 14 -21 15 -7 0 15 3
15 20 5 16 -10 24 -10 38 0 9 7 31 21 47 32 28 18 89 88 69 78 -47 -21 -84
-43 -84 -50 0 -4 -7 -5 -15 -2 -8 4 -12 10 -9 15 7 13 -31 6 -48 -8 -8 -7 -33
-16 -57 -22 -33 -7 -43 -6 -48 5 -2 7 -13 16 -22 19 -28 9 -63 46 -57 61 6 15
5 16 -37 18 -16 1 -32 -5 -37 -14 -5 -8 -10 -10 -10 -4 0 6 -12 24 -26 39 -14
15 -30 37 -34 49 -7 17 -9 18 -9 4z"/>
<path d="M166 635 c7 -17 20 -20 28 -6 3 5 -1 12 -10 15 -22 9 -24 8 -18 -9z"/>
</g>
</svg>
